<?xml version="1.0" encoding="utf-8"?>
<!-- Uploaded to SVGRepo https://www.svgrepo.com -->
<svg version="1.2" baseProfile="tiny" id="Layer_1" xmlns="http://www.w3.org/2000/svg" xmlns:xlink="http://www.w3.org/1999/xlink"
	 x="0px" y="0px" viewBox="0 0 256 256" xml:space="preserve">
<path d="M182.7,183.7c1-0.6,1.8-1.2,2.8-2.1c6.4-5.7,9.1-15.8,9.1-31.3c0-43.9-24.3-124.1-56.3-144c0-2.8-2.4-5.2-5.5-5.2
	c-1.2,0-2.4,0.2-3.6,1.3c-0.1,0-0.2,0-0.2,0c-0.8-1.1-2.3-2.3-4-2.3c-1.8,0-3.3,1.3-4,2.3c0,0-0.1,0-0.2,0c-1.2-1.1-2.4-1.3-3.6-1.3
	c-3.1,0-5.5,2.3-5.5,5.1c-32,19.7-56.3,100.1-56.3,144c0,15.5,2.8,25.6,9.1,31.3c1,1,1.8,1.5,2.8,2.1c-6.1,20.1-9.1,38.3-10.3,54.1
	c0,1.8-0.3,3.5-0.3,4.6h4.9h36v1.9c0,6.7,5,11.9,11.7,11.9s11.7-5.2,11.7-11.9v-1.8h7.4v1.9c0,6.7,5,11.9,11.7,11.9
	s11.7-5.2,11.7-11.9v-1.9h36.8h4.9c0-1.1-0.3-2.7-0.3-4.6C191.8,222,188.7,203.9,182.7,183.7z M65.7,179.8c-5.7-5.2-8.5-15-8.5-29.5
	c0-41.4,23.5-119,53.6-140.7c-2.8,3.4-4.4,7.6-4.4,12.5c0,10.3,7.8,18.6,18.4,19.1c10.6-0.5,18.4-8.8,18.4-19.1
	c0-4.9-1.6-9.1-4.4-12.5c30.2,21.7,53.6,99.3,53.6,140.7c0,14.7-2.8,24.3-8.5,29.5c-0.6,0.6-1.2,1-1.8,1.5
	c-1.8-5.5-3.6-11.3-5.7-16.8c-0.6-1.2-1-2.4-1.5-3.6c-6.4-15.2-14.7-31-25.6-47.1c-0.6-1-2.4-4.2-2.8-6.7
	c-1.2-9.4,2.4-24.3,5.2-33.2l16.1,54.5c1,3.4,3.1,5.5,5.2,6.4c1,0.3,1.8,0.6,2.8,0.6c5.5,0.3,10.6-4.9,8.5-12.7l-18.3-59.7
	c-0.6-1.8-1.2-3.7-2.4-5.8c-3.6-6.4-9.7-13.2-20.6-13.2h-18.4h-18.3C95.5,43.9,89.3,50.6,86,57c-1.2,2.1-1.8,4-2.4,5.8l-18.3,59.7
	c-2.1,8,3.1,13.1,8.5,12.8c1,0,1.8-0.3,2.8-0.6c2.1-1,4.2-3.1,5.2-6.4l16.1-54.5c2.8,8.8,6.4,23.8,5.2,33.2
	c-0.3,2.4-2.1,5.7-2.8,6.7c-10.9,16.1-19.2,32-25.6,47.1c-0.6,1.2-1,2.4-1.5,3.6c-2.1,5.5-3.9,11.3-5.7,16.8
	C66.8,180.7,66.3,180.4,65.7,179.8z M71.2,185.9c0-1,0.3-1.6,0.6-2.5c1.5-5.2,3.4-10.7,5.5-16.1c0.3-1.2,1-2.1,1.2-3.4
	c6.4-15.5,14.7-31.6,25.6-47.5c1-1,3.1-5.2,3.6-8.8c1.2-10.3-2.4-25.3-5.2-34.4c0.3-5.7,5.4-9.4,11.1-9.4c4.4,0,8.2,2.7,10.3,6.3
	v4.7h2.1v-4.6c1.1-3.6,5.6-6.3,10.1-6.3c5.7,0,10.6,3.6,10.9,9.4c-2.8,9.1-6.4,24.1-5.2,34.4c0.6,3.6,2.8,8,3.6,8.8
	c10.9,15.8,19.2,32,25.6,47.5c0.3,1.2,1,2.1,1.2,3.4c2.1,5.5,3.9,10.9,5.5,16.1c0.3,1,0.6,1.6,0.6,2.5c5.4,18.3,8.1,35.2,9.8,49.5
	H61.4C62.9,221.2,65.7,204.3,71.2,185.9z"/>
</svg>
