<?xml version="1.0" encoding="iso-8859-1"?>
<!-- Generator: Adobe Illustrator 19.0.0, SVG Export Plug-In . SVG Version: 6.00 Build 0)  -->
<svg version="1.1" id="Layer_1" xmlns="http://www.w3.org/2000/svg" xmlns:xlink="http://www.w3.org/1999/xlink" x="0px" y="0px"
	 viewBox="0 0 512 512" style="enable-background:new 0 0 512 512;" xml:space="preserve">
<g>
	<g>
		<circle cx="256.004" cy="42.143" r="42.143"/>
	</g>
</g>
<g>
	<g>
		<path d="M358.697,145.59c-0.133-26.399-21.718-47.877-48.118-47.877h-17.954c-4.181,11.169-31.131,83.162-36.626,97.84
			c-5.494-14.676-32.446-86.673-36.626-97.84h-17.954c-26.4,0-47.984,21.478-48.117,47.877l-0.751,149.38
			c-0.057,11.229,9.002,20.378,20.231,20.435c0.036,0,0.07,0,0.104,0c11.181,0,20.274-9.036,20.331-20.231l0.751-149.38
			c0.012-2.256,1.846-4.077,4.101-4.07c2.255,0.007,4.079,1.836,4.079,4.091c-0.006,202.263-0.216,19.047-0.216,341.785
			c0,13.475,10.924,24.4,24.4,24.4s24.4-10.924,24.4-24.4V292.571h10.535V487.6c0,13.475,10.924,24.4,24.4,24.4
			s24.4-10.924,24.4-24.4c0-317.693-0.212-145.664-0.216-341.785c0-2.255,1.825-4.085,4.079-4.091
			c2.255-0.007,4.09,1.814,4.101,4.07l0.751,149.38c0.057,11.195,9.148,20.231,20.331,20.231c0.034,0,0.07,0,0.104,0
			c11.229-0.057,20.286-9.206,20.231-20.435L358.697,145.59z M298.16,165.394h-18.873v-8.87h18.873V165.394z"/>
	</g>
</g>
<g>
	<g>
		<path d="M274.826,87.971c-0.899-0.531-2.011-0.549-2.927-0.045l-15.9,8.742l-15.9-8.742c-0.915-0.503-2.028-0.486-2.927,0.045
			c-0.899,0.531-1.45,1.498-1.45,2.542v6.864v13.049c0,1.044,0.551,2.011,1.45,2.542c0.899,0.531,2.011,0.549,2.927,0.045
			l15.9-8.742l15.9,8.742c0.916,0.505,2.029,0.487,2.927-0.044c0.899-0.531,1.45-1.498,1.45-2.542v-13.05v-6.864
			C276.276,89.469,275.725,88.502,274.826,87.971z"/>
	</g>
</g>
<g>
	<g>
		<circle cx="256.004" cy="126.029" r="5.544"/>
	</g>
</g>
<g>
	<g>
		<circle cx="256.004" cy="152.649" r="5.544"/>
	</g>
</g>
<g>
</g>
<g>
</g>
<g>
</g>
<g>
</g>
<g>
</g>
<g>
</g>
<g>
</g>
<g>
</g>
<g>
</g>
<g>
</g>
<g>
</g>
<g>
</g>
<g>
</g>
<g>
</g>
<g>
</g>
</svg>
